<?xml version="1.0"?>
<svg xmlns="http://www.w3.org/2000/svg" id="Outline" viewBox="0 0 512 512" width="512" height="512"><circle cx="448" cy="184" r="8"/><path fill="#3d6afd" d="M34.227,282.355c-4.946,24.318-2.692,53.54,6.184,80.175,4.034,12.1,9.315,34.689-.652,49.958a24.061,24.061,0,0,0-.249,25.823L73.216,492.24A8,8,0,0,0,80,496h72a8,8,0,0,0,8-8V472a24.028,24.028,0,0,0-24-24H124.281l-9.987-14.98,42.431-42.431c67.077-32.732,158.939-7.164,180.115-.519l15.253,99.146A8,8,0,0,0,360,496h64a8,8,0,0,0,8-8V472a24.028,24.028,0,0,0-24-24h-7.16l6.793-67.929C416.047,372.737,440,348.639,440,312c0-26.132,3.552-41.464,5.651-48.242,20.671-1.8,33.031-13.353,39.9-23.17a67.348,67.348,0,0,0,10.291-23.019,8,8,0,0,0-.69-5.147L488,198.111V168c0-17.032-23.473-37.2-32.626-44.417l-7.483-44.9A8,8,0,0,0,433.753,75l-30.577,38.222c-42.187,15.852-65.883,74.544-72.753,94.158-7.18-.711-19.9-1.893-35.9-3.051-100.346-7.2-155.5-1.894-184.095,3.825A117.785,117.785,0,0,0,88.553,214.7a96.9,96.9,0,0,0-10.924,5.336c-4.7-25.519-4.4-58.3,15.917-86.747,24.837-34.773,74.266-55.395,146.9-61.3a118.583,118.583,0,0,0,17.305-2.02c13.558-2.647,22.813-7.383,27.508-14.077,2.618-3.734,5.147-9.96,2.326-18.424-7.469-22.4-43.647-21.176-61.034-20.588-.918.031-1.773.06-2.555.082C166.223,18.622,119.681,32.717,85.666,58.856c-35.7,27.43-59.845,63.824-67.975,102.478-7.464,35.514-.837,73.719,19.153,110.7Q35.32,277.032,34.227,282.355ZM55.59,357.471A158,158,0,0,1,49.64,333C68.865,338.1,96,348.709,96,368c0,16.119-15.968,36.791-44.129,57.462a7.969,7.969,0,0,1,1.286-4.228C60.311,410.275,66.539,390.318,55.59,357.471ZM410.53,127.589A7.992,7.992,0,0,0,414.247,125l20.807-26.01,5.055,30.327A8,8,0,0,0,443.2,134.4c12.074,9.056,28.8,25.77,28.8,33.6v28.292a66.359,66.359,0,0,1-28.907,12.187c-25.4,4.341-54.53-4.617-84.561-25.92C369.761,160.647,387.227,135.357,410.53,127.589ZM113.569,223.845c51.391-10.277,131.2-6.929,176.421-3.793,12.733,15.734,15.3,28.9,7.61,39.148-21.161,28.214-32.841,28.236-62.022,13.645-19.365-9.684-31.035-.436-39.555,6.316-9.134,7.24-15.169,12.021-31.908,1.979-30.593-18.352-52.5-37.773-61.7-54.45A108.868,108.868,0,0,1,113.569,223.845Zm-26.011,8.983c13.7,26.363,47.908,49.784,68.326,62.032,9.759,5.855,17.794,8.02,24.556,8.02,11.415,0,19.2-6.171,25.522-11.18,7.87-6.237,12.205-9.672,22.46-4.545,14.072,7.036,25.9,11.4,36.922,11.4,15.307,0,29.053-8.413,45.055-29.75,7.407-9.873,9.424-21.634,5.833-34.01a60.008,60.008,0,0,0-5.744-13.161c15.1,1.273,24.506,2.308,24.631,2.322a8,8,0,0,0,8.543-5.648,223.715,223.715,0,0,1,7.959-21.054c31.876,22.02,58.654,28.278,78.769,28.278a91.235,91.235,0,0,0,16.557-1.482,83.687,83.687,0,0,0,30.213-11.837l2.346,4.692C477.16,224.741,467.852,248,440,248a8,8,0,0,0-7.155,4.422C432.483,253.145,424,270.587,424,312c0,35.265-28.408,57.3-28.815,57.611a8,8,0,0,0-3.145,5.593l-8,80A8,8,0,0,0,392,464h16a8.009,8.009,0,0,1,8,8v8H366.863l-14.956-97.216a8,8,0,0,0-5.216-6.318c-1.176-.42-29.244-10.344-67.648-15.4-64.821-8.53-106.811,3.871-130.621,15.777a7.986,7.986,0,0,0-2.079,1.5l-48,48a8,8,0,0,0-1,10.095l16,24A8,8,0,0,0,120,464h16a8.009,8.009,0,0,1,8,8v8H84.434l-25.11-40.176C102.638,408.705,112,383.73,112,368c0-24.057-22.732-42.374-64.17-51.934C46.244,284.745,54.6,250.3,87.558,232.828Zm-54.209-68.2c7.344-34.919,29.386-67.977,62.066-93.083C126.7,47.5,170.12,34.517,224.461,32.957c.807-.024,1.688-.053,2.634-.085,10.3-.348,41.626-1.4,45.316,9.658.863,2.59.142,3.619-.245,4.173-4.095,5.849-21.742,9.007-32.373,9.3q-.219.006-.438.024c-77.664,6.277-131.1,29.141-158.829,67.96-26.585,37.22-22.847,80.7-17.153,106.135a85.08,85.08,0,0,0-18.306,22.525C31.516,222.828,27.453,192.677,33.349,164.626Z"/></svg>
